<svg xmlns="http://www.w3.org/2000/svg" width="256" height="256" viewBox="0 0 100 100"><rect width="100" height="100" rx="20" fill="#ac0016" data-darkreader-inline-fill="" style="--darkreader-inline-fill:#8a0012;"></rect><path fill="#fff" data-darkreader-inline-fill="" style="--darkreader-inline-fill:#e8e6e3;" d="M34.19 59.93L34.19 59.93Q33.71 60.27 32.93 60.54Q32.15 60.81 31.20 60.81L31.20 60.81Q30.11 60.81 29.26 60.47Q28.41 60.13 28.07 59.38L28.07 59.38Q24.40 51.77 21.75 45.44Q19.09 39.12 17.46 34.97L17.46 34.97L17.19 34.97Q16.99 40.07 16.75 44.46Q16.51 48.84 16.24 53.03Q15.97 57.21 15.69 61.49Q15.42 65.78 15.15 70.67L15.15 70.67Q14.74 70.81 14.10 70.94Q13.45 71.08 12.70 71.08L12.70 71.08Q11.21 71.08 10.59 70.47Q9.98 69.86 9.98 68.70L9.98 68.70Q9.98 68.02 10.08 65.78Q10.19 63.53 10.39 60.34Q10.59 57.14 10.83 53.26Q11.07 49.39 11.38 45.38Q11.68 41.36 11.99 37.49Q12.29 33.61 12.57 30.42L12.57 30.42Q13.11 29.94 14.13 29.53Q15.15 29.12 16.44 29.12L16.44 29.12Q19.57 29.12 20.79 31.64L20.79 31.64Q22.09 34.29 23.41 37.25Q24.74 40.21 26.06 43.27Q27.39 46.33 28.65 49.32Q29.91 52.31 31.06 55.03L31.06 55.03L31.33 55.03Q32.83 51.43 34.33 47.93Q35.82 44.42 37.25 41.16Q38.68 37.90 39.97 35.04Q41.26 32.18 42.28 29.80L42.28 29.80Q42.89 29.46 43.85 29.29Q44.80 29.12 45.61 29.12L45.61 29.12Q48.81 29.12 49.29 31.30L49.29 31.30Q49.56 32.52 49.90 35.35Q50.24 38.17 50.58 41.84Q50.92 45.51 51.22 49.73Q51.53 53.94 51.80 57.85Q52.07 61.76 52.28 65.06Q52.48 68.36 52.62 70.26L52.62 70.26Q51.39 71.08 49.76 71.08L49.76 71.08Q48.74 71.08 47.96 70.57Q47.18 70.06 47.04 68.70L47.04 68.70Q46.70 63.74 46.43 58.84Q46.16 53.94 45.92 49.52Q45.68 45.10 45.48 41.40Q45.27 37.69 45.14 35.11L45.14 35.11L44.87 35.11Q44.12 37.01 43.13 39.39Q42.15 41.77 40.82 44.76Q39.49 47.76 37.86 51.53Q36.23 55.30 34.19 59.93ZM75.13 66.93L75.13 66.93Q79.68 66.93 82.03 64.86Q84.37 62.78 84.37 59.52L84.37 59.52Q84.37 56.66 82.57 54.90Q80.77 53.13 76.89 51.97L76.89 51.97L70.98 50.20Q66.63 48.91 64.14 46.40Q61.66 43.88 61.66 39.60L61.66 39.60Q61.66 37.01 62.65 34.94Q63.63 32.86 65.47 31.44Q67.31 30.01 69.86 29.23Q72.41 28.44 75.60 28.44L75.60 28.44Q78.32 28.44 80.67 28.89Q83.01 29.33 84.75 30.11Q86.48 30.89 87.43 31.84Q88.39 32.80 88.39 33.82L88.39 33.82Q88.39 34.77 87.91 35.45Q87.43 36.13 86.69 36.54L86.69 36.54Q84.92 35.18 82.10 34.16Q79.27 33.14 75.81 33.14L75.81 33.14Q71.79 33.14 69.52 34.84Q67.24 36.54 67.24 39.60L67.24 39.60Q67.24 41.98 68.87 43.47Q70.50 44.97 74.31 46.06L74.31 46.06L78.46 47.28Q83.83 48.84 86.92 51.67Q90.02 54.49 90.02 59.52L90.02 59.52Q90.02 64.89 86.14 68.22Q82.27 71.56 75.13 71.56L75.13 71.56Q72.00 71.56 69.45 71.01Q66.90 70.47 65.10 69.58Q63.29 68.70 62.31 67.65Q61.32 66.59 61.32 65.57L61.32 65.57Q61.32 64.42 62.04 63.63Q62.75 62.85 63.70 62.51L63.70 62.51Q64.45 63.26 65.54 64.04Q66.63 64.82 68.05 65.47Q69.48 66.12 71.25 66.52Q73.02 66.93 75.13 66.93Z"></path></svg>